# xmcd CD database file
#
# Track frame offsets:
#	150
#	14513
#	29497
#	46591
#	65803
#	77310
#	94308
#	107647
#	121282
#	132710
#	153995
#
# Disc length: 2179 seconds
#
# Revision: 0
# Processed by: cddbd v1.5.1PL0 Copyright (c) Steve Scherf et al.
# Submitted via: CDex 1.51
#
DISCID=8d08810b
DTITLE=Crosstyz - Another Boarder To Cross
DYEAR=1900
DGENRE=Country
TTITLE0=Fallen'
TTITLE1=Even The Moon
TTITLE2=To Many Hourses
TTITLE3=As Far As You Can Go
TTITLE4=Tarzan And  Jane
TTITLE5=I Don't Say I Love You
TTITLE6=But Then You'd Know
TTITLE7=Way Beyond Forever
TTITLE8=Another Boarder To Cross
TTITLE9=No Bull
TTITLE10=Children Go Where I Send Thee
EXTD=
EXTT0=
EXTT1=
EXTT2=
EXTT3=
EXTT4=
EXTT5=
EXTT6=
EXTT7=
EXTT8=
EXTT9=
EXTT10=
PLAYORDER=
